<?xml version="1.0" standalone="no"?>
<!DOCTYPE svg PUBLIC "-//W3C//DTD SVG 20010904//EN"
 "http://www.w3.org/TR/2001/REC-SVG-20010904/DTD/svg10.dtd">
<svg version="1.0" xmlns="http://www.w3.org/2000/svg"
 width="500.000000pt" height="500.000000pt" viewBox="0 0 500.000000 500.000000"
 preserveAspectRatio="xMidYMid meet">
<metadata>
Created by potrace 1.11, written by Peter Selinger 2001-2013
</metadata>
<g transform="translate(0.000000,500.000000) scale(0.100000,-0.100000)"
fill="#000000" stroke="none">
<path d="M0 2500 l0 -2500 2500 0 2500 0 0 2500 0 2500 -2500 0 -2500 0 0
-2500z m1746 721 c40 -18 74 -54 74 -77 0 -6 -15 -15 -32 -21 -29 -8 -36 -6
-60 19 -22 24 -34 28 -78 28 -62 0 -85 -11 -106 -51 -20 -40 -20 -129 0 -168
31 -58 106 -75 189 -42 21 8 27 17 27 41 0 29 -1 30 -50 30 -49 0 -50 1 -50
30 l0 30 90 0 90 0 0 -75 0 -74 -44 -26 c-90 -53 -223 -51 -288 3 -17 14 -39
44 -49 67 -33 72 -19 195 28 247 50 56 178 76 259 39z m294 -186 l0 -205 -40
0 -40 0 0 205 0 205 40 0 40 0 0 -205z m235 195 c3 -5 26 -72 50 -147 24 -76
46 -131 49 -123 8 20 86 271 86 276 0 2 25 4 55 4 l55 0 0 -205 0 -205 -35 0
-35 0 -1 158 c0 86 -2 153 -4 147 -2 -5 -24 -77 -50 -158 l-46 -148 -31 3
c-35 3 -34 0 -93 193 l-34 110 -1 -152 0 -153 -40 0 -40 0 0 198 c0 109 3 202
7 205 10 11 101 8 108 -3z m582 -140 l48 -150 45 148 45 147 58 3 57 3 0 -206
0 -205 -41 0 -40 0 3 154 c2 85 0 149 -3 143 -3 -7 -25 -76 -50 -154 l-44
-143 -32 0 c-29 0 -33 4 -43 38 -5 20 -28 91 -49 157 l-40 120 0 -157 -1 -158
-35 0 -35 0 0 205 0 205 55 0 54 0 48 -150z m693 115 l0 -35 -120 0 -120 0 0
-50 0 -50 110 0 110 0 0 -35 0 -35 -110 0 -110 0 0 -50 0 -50 125 0 125 0 0
-35 0 -35 -165 0 -165 0 0 205 0 205 160 0 160 0 0 -35z m-1655 -509 c27 -12
65 -58 65 -79 0 -3 -16 -8 -36 -11 -30 -6 -39 -3 -59 18 -42 45 -145 32 -145
-18 0 -33 14 -41 103 -64 114 -30 147 -58 147 -128 0 -75 -64 -117 -176 -117
-78 1 -120 17 -153 59 -29 37 -26 51 14 57 29 5 39 1 64 -24 25 -24 37 -29 80
-29 38 0 56 5 71 20 41 41 16 71 -80 95 -127 31 -150 50 -150 120 0 77 51 114
158 115 34 0 78 -6 97 -14z m342 -136 l48 -150 45 148 45 147 58 3 57 3 0
-206 0 -205 -41 0 -40 0 3 154 c2 85 0 149 -3 143 -3 -7 -25 -76 -50 -154
l-44 -143 -32 0 c-29 0 -33 4 -43 38 -5 20 -28 91 -49 157 l-40 120 0 -157 -1
-158 -35 0 -35 0 0 205 0 205 55 0 54 0 48 -150z m683 115 l0 -35 -65 0 -65 0
0 -170 0 -170 -40 0 -40 0 0 170 0 170 -65 0 -65 0 0 35 0 35 170 0 170 0 0
-35z m178 -52 l3 -83 84 0 84 0 3 83 3 82 43 3 42 3 0 -205 0 -206 -45 0 -45
0 0 85 0 85 -85 0 -85 0 0 -85 0 -85 -45 0 -45 0 0 198 c0 109 3 202 7 206 4
4 23 6 43 4 l35 -3 3 -82z m-1152 -518 c23 -38 62 -106 88 -150 l46 -80 0 153
0 153 38 -3 37 -3 3 -202 2 -203 -52 0 -53 0 -84 150 c-46 83 -85 150 -86 150
-2 0 0 -67 3 -150 l5 -150 -42 0 -41 0 0 206 0 205 47 -3 c48 -3 48 -3 89 -73z
m652 38 l3 -33 -120 0 -121 0 0 -50 0 -50 110 0 110 0 0 -35 0 -35 -110 0
-110 0 0 -50 0 -49 123 -3 122 -3 3 -32 3 -33 -165 0 -166 0 0 205 0 206 158
-3 157 -3 3 -32z m166 20 c6 -19 65 -288 67 -300 0 -5 17 64 38 152 l36 160
47 3 c54 4 48 16 95 -198 15 -68 29 -118 31 -110 2 8 18 80 35 160 l32 145 44
3 c41 3 43 2 38 -20 -4 -13 -28 -105 -53 -205 l-47 -183 -51 0 -51 0 -35 154
c-19 85 -36 154 -37 153 -1 -1 -13 -54 -28 -117 -47 -208 -38 -190 -95 -190
-48 0 -49 1 -59 38 -71 269 -91 350 -91 360 0 7 15 12 39 12 29 0 41 -5 45
-17z"/>
</g>
</svg>
